# xmcd
#
# Track frame offsets:
#  182
#  15982
#  25110
#  40902
#  72377
#  96522
#  105737
#  126232
#  151157
#  169749
#  189077
#  223402
#  234274
#  253059
#  287424
#  305377
#  327322
#  341442
#
# Disc length: 4782 seconds
#
# Revision: 0
# Processed by: cddbd v1.5.1PL2 Copyright (c) Steve Scherf et al.
# Submitted via: Collectorz.com_Music_Collector 6.9
#
DISCID=f512ac12
DTITLE=Ten Years After - SSSSH. (1969)/Cricklwood green (1970)
DYEAR=1970
DGENRE=Blues
TTITLE0=Bad scene
TTITLE1=two time mama
TTITLE2=Stoned woman
TTITLE3=Good morning little school girl
TTITLE4=If you should love me
TTITLE5=I don't know that you don't know my name
TTITLE6=the stomp
TTITLE7=I woke up this morning
TTITLE8=Sugar the road
TTITLE9=Working on the road
TTITLE10=50000 miles beneath my brain
TTITLE11=Year 3000 blues
TTITLE12=My and my baby
TTITLE13=love like a man
TTITLE14=Circles
TTITLE15=As the sun still burns away
TTITLE16=Bonus: warm sun
TTITLE17=Bonus: To no one
EXTD=
EXTT0=
EXTT1=
EXTT2=
EXTT3=
EXTT4=
EXTT5=
EXTT6=
EXTT7=
EXTT8=
EXTT9=
EXTT10=
EXTT11=
EXTT12=
EXTT13=
EXTT14=
EXTT15=
EXTT16=
EXTT17=
PLAYORDER=
